<?xml version="1.0" encoding="UTF-8"?>
<svg xmlns="http://www.w3.org/2000/svg" viewBox="0 0 128 128" width="128" height="128" role="img">
  <title>Media Inverter</title>
  <desc>Clean icon showing media inversion with yin-yang inspired design</desc>
  
  <!-- Background circle -->
  <circle cx="64" cy="64" r="58" fill="#2563eb" stroke="#2563eb" stroke-width="4"/>
  
  <!-- Yin-yang style split for inversion concept -->
  <path d="M64 6 A58 58 0 0 1 64 122 A29 29 0 0 1 64 64 A29 29 0 0 0 64 6" fill="#ffffff"/>
  
  <!-- Small circles for yin-yang dots -->
  <circle cx="64" cy="35" r="12" fill="#2563eb"/>
  <circle cx="64" cy="93" r="12" fill="#ffffff"/>
  
  <!-- Media symbols overlay -->
  <!-- Image icon (photo frame) -->
  <g transform="translate(38, 28)">
    <rect x="0" y="0" width="20" height="16" rx="2" fill="none" stroke="#ffffff" stroke-width="2.5"/>
    <circle cx="6" cy="6" r="2.5" fill="#ffffff"/>
    <path d="M2 14 L8 9 L12 11 L16 7 L18 9 L18 14 Z" fill="#ffffff"/>
  </g>
  
  <!-- Play button icon (video) -->
  <g transform="translate(70, 84)">
    <circle cx="10" cy="10" r="10" fill="none" stroke="#2563eb" stroke-width="2.5"/>
    <path d="M7 6 L15 10 L7 14 Z" fill="#2563eb"/>
  </g>
  
  <!-- Subtle highlight for depth -->
  <circle cx="64" cy="64" r="59" fill="none" stroke="url(#highlight)" stroke-width="2"/>
  
  <defs>
    <linearGradient id="highlight" x1="0%" y1="0%" x2="100%" y2="100%">
      <stop offset="0%" style="stop-color:#ffffff;stop-opacity:0.3"/>
      <stop offset="100%" style="stop-color:#ffffff;stop-opacity:0"/>
    </linearGradient>
  </defs>
</svg>